<?xml version="1.0" encoding="UTF-8" standalone="no"?>
<!-- Created with Inkscape (http://www.inkscape.org/) -->
<svg
   xmlns:dc="http://purl.org/dc/elements/1.1/"
   xmlns:cc="http://creativecommons.org/ns#"
   xmlns:rdf="http://www.w3.org/1999/02/22-rdf-syntax-ns#"
   xmlns:svg="http://www.w3.org/2000/svg"
   xmlns="http://www.w3.org/2000/svg"
   xmlns:inkscape="http://www.inkscape.org/namespaces/inkscape"
   version="1.1"
   width="366.66626"
   height="202.5"
   id="svg2"
   xml:space="preserve"><metadata
     id="metadata8"><rdf:RDF><cc:Work
         rdf:about=""><dc:format>image/svg+xml</dc:format><dc:type
           rdf:resource="http://purl.org/dc/dcmitype/StillImage" /></cc:Work></rdf:RDF>
    <style>
      .text {
         fill: #1f3440;
      }
      #state {
        fill: #1f3440;
      }
    </style>

    </metadata><defs
     id="stuff"><clipPath
       id="clipPath36"><path
         d="m 0,162 293.333,0 0,-162 L 0,0 0,162 z"
         inkscape:connector-curvature="0"
         id="path38" class="text" /></clipPath></defs><g
     transform="matrix(1.25,0,0,-1.25,0,202.5)"
     id="g10"><g
       transform="translate(104.8745,33.8262)"
       id="g12"><path
         d="m 0,0 -0.239,7.99 0.335,64.486 0,40.153 0,8.455 -97.726,0.423 -0.132,-2.016 -1.896,-50.225 -0.375,-9.268 -0.038,-1.527 0.356,-0.825 6.272,-5.933 32.003,-30.106 23.672,-22.326 8.302,-7.814 3.274,-3.121 3.64,-3.418 2.861,-2.617 0.225,-0.231 0.257,-0.228 1.484,-1.416 7.229,-6.879 0.9,-0.756 0.52,0.885 -0.083,0.515 -0.501,0.363 0.592,0.506 0.63,0.618 -0.051,0.982 -0.472,2.521 -0.895,2.243 -0.592,1.632 0.064,0.278 0.166,1.056 -10e-4,0.348 -0.289,1.316 -0.432,1.385 0.002,0.281 -0.051,1.383 0.143,1.561 -0.153,0.826 -0.681,1.586 -0.068,0.734 -0.178,1.418 0.072,0.463 0.507,0.256 0.617,0.172 1.287,0.529 0.716,0.352 0.354,-0.002 0.786,-0.51 0.982,0.053 1.505,-0.104 0.297,-0.281 0.563,-1.023 0.664,-0.557 1.158,-0.303 0.556,0.172 0.508,0.514 0.11,0.392 0.19,0.791 0.563,1.014 0.385,0.723 0.202,0.646 L 0,0 z"
         inkscape:connector-curvature="0"
         id="state"
          /></g><g
       transform="translate(125.5835,124.4492)"
       id="g16"><path
         d="m 0,0 -6.117,20.419 -0.088,0 0,-20.419 -4.4,0 0,30.804 5.192,0 5.501,-18.35 0.088,0 0,18.35 4.401,0 L 4.577,0 0,0 z"
         inkscape:connector-curvature="0"
         id="path18" class="text"
          /></g><g
       transform="translate(139.0156,150.9409)"
       id="g20"><path
         d="m 0,0 0,-8.713 6.821,0 0,-4.313 -6.821,0 0,-9.153 8.449,0 0,-4.313 -13.114,0 0,30.804 13.114,0 L 8.449,0 0,0 z"
         inkscape:connector-curvature="0"
         id="path22" class="text"
          /></g><g
       transform="translate(155.4092,124.4492)"
       id="g24"><path
         d="m 0,0 -5.193,30.804 4.753,0 3.477,-23.499 0.088,0 3.432,23.499 4.665,0 L 6.029,0 0,0 z"
         inkscape:connector-curvature="0"
         id="path26" class="text"
          /></g><g
       transform="translate(172.8467,135.6709)"
       id="g28"><path
         d="m 0,0 3.917,0 -1.893,12.982 -0.131,0 L 0,0 z m 5.545,-11.222 -1.012,6.997 -5.149,0 -1.012,-6.997 -4.665,0 5.325,30.805 5.941,0 5.324,-30.805 -4.752,0 z"
         inkscape:connector-curvature="0"
         id="path30" class="text"
          /></g><g
       id="g32"><g
         clip-path="url(#clipPath36)"
         id="g34"><g
           transform="translate(191.0576,128.7617)"
           id="g40"><path
             d="m 0,0 1.849,0 c 2.244,0 3.256,1.188 3.256,3.785 l 0,14.61 c 0,2.596 -1.012,3.784 -3.256,3.784 L 0,22.179 0,0 z m 2.024,26.492 c 5.018,0 7.746,-2.728 7.746,-7.789 l 0,-15.226 c 0,-5.061 -2.728,-7.789 -7.746,-7.789 l -6.689,0 0,30.804 6.689,0 z"
             inkscape:connector-curvature="0"
             id="path42" class="text"
              /></g><g
           transform="translate(209.6304,135.6709)"
           id="g44"><path
             d="m 0,0 3.917,0 -1.893,12.982 -0.131,0 L 0,0 z m 5.545,-11.222 -1.012,6.997 -5.149,0 -1.012,-6.997 -4.665,0 5.325,30.805 5.941,0 5.325,-30.805 -4.753,0 z"
             inkscape:connector-curvature="0"
             id="path46" class="text"
              /></g><g
           transform="translate(128.9282,109.3008)"
           id="g48"><path
             d="m 0,0 0,-2.772 -4.489,-0.221 0,2.509 c 0,2.464 -0.924,3.565 -2.64,3.565 -1.716,0 -2.641,-1.101 -2.641,-3.125 l 0,-16.81 c 0,-2.025 0.925,-3.125 2.641,-3.125 1.716,0 2.64,1.1 2.64,3.564 l 0,3.433 4.489,-0.22 0,-3.696 c 0,-4.665 -2.685,-7.394 -7.261,-7.394 -4.533,0 -7.173,2.729 -7.173,7.394 l 0,16.898 c 0,4.665 2.64,7.393 7.173,7.393 C -2.685,7.393 0,4.665 0,0"
             inkscape:connector-curvature="0"
             id="path50" class="text"
              /></g><g
           transform="translate(136.9082,108.8608)"
           id="g52"><path
             d="m 0,0 0,-16.019 c 0,-2.288 1.012,-3.52 2.86,-3.52 1.848,0 2.861,1.232 2.861,3.52 L 5.721,0 C 5.721,2.288 4.708,3.521 2.86,3.521 1.012,3.521 0,2.288 0,0 m 10.385,0.044 0,-16.106 c 0,-4.841 -2.86,-7.79 -7.525,-7.79 -4.664,0 -7.525,2.949 -7.525,7.79 l 0,16.106 c 0,4.84 2.861,7.789 7.525,7.789 4.665,0 7.525,-2.949 7.525,-7.789"
             inkscape:connector-curvature="0"
             id="path54" class="text"
              /></g><g
           transform="translate(166.2925,85.4492)"
           id="g56"><path
             d="m 0,0 0,21.387 -0.088,0 -3.872,-16.986 -2.773,0 -3.872,16.986 -0.088,0 0,-21.387 -4.401,0 0,30.804 6.116,0 3.653,-16.546 0.088,0 3.609,16.546 6.293,0 L 4.665,0 0,0 z"
             inkscape:connector-curvature="0"
             id="path58" class="text"
              /></g><g
           transform="translate(190.2632,85.4492)"
           id="g60"><path
             d="m 0,0 0,21.387 -0.088,0 -3.872,-16.986 -2.773,0 -3.872,16.986 -0.088,0 0,-21.387 -4.401,0 0,30.804 6.116,0 3.653,-16.546 0.088,0 3.609,16.546 6.293,0 L 4.665,0 0,0 z"
             inkscape:connector-curvature="0"
             id="path62" class="text"
              /></g><g
           transform="translate(213.4419,92.3584)"
           id="g64"><path
             d="m 0,0 c 0,-4.841 -2.772,-7.349 -7.262,-7.349 -4.4,0 -7.173,2.508 -7.173,7.349 l 0,23.895 4.49,0 0,-23.763 c 0,-2.244 1.011,-3.081 2.639,-3.081 1.629,0 2.641,0.837 2.641,3.081 l 0,23.763 4.665,0 L 0,0 z"
             inkscape:connector-curvature="0"
             id="path66" class="text"
              /></g><g
           transform="translate(228.1069,85.4492)"
           id="g68"><path
             d="m 0,0 -6.117,20.419 -0.088,0 0,-20.419 -4.4,0 0,30.804 5.192,0 5.501,-18.35 0.088,0 0,18.35 4.4,0 L 4.576,0 0,0 z"
             inkscape:connector-curvature="0"
             id="path70" class="text"
              /></g><path
           d="m 236.862,116.253 4.664,0 0,-30.804 -4.664,0 0,30.804 z"
           inkscape:connector-curvature="0"
           id="path72" class="text"
            /><g
           transform="translate(254.2017,111.853)"
           id="g74"><path
             d="m 0,0 0,-26.404 -4.664,0 0,26.404 -4.973,0 0,4.4 14.61,0 0,-4.4 L 0,0 z"
             inkscape:connector-curvature="0"
             id="path76" class="text"
              /></g><g
           transform="translate(271.9771,85.4492)"
           id="g78"><path
             d="m 0,0 -4.665,0 0,13.95 -6.469,16.854 4.929,0 3.917,-10.913 0.088,0 3.74,10.913 4.841,0 L 0,13.906 0,0 z"
             inkscape:connector-curvature="0"
             id="path80" class="text"
              /></g><g
           transform="translate(128.9282,70.3008)"
           id="g82"><path
             d="m 0,0 0,-2.773 -4.489,-0.219 0,2.508 c 0,2.464 -0.924,3.564 -2.64,3.564 -1.716,0 -2.641,-1.1 -2.641,-3.125 l 0,-16.81 c 0,-2.024 0.925,-3.124 2.641,-3.124 1.716,0 2.64,1.1 2.64,3.565 l 0,3.432 4.489,-0.221 0,-3.695 c 0,-4.666 -2.685,-7.395 -7.261,-7.395 -4.533,0 -7.173,2.729 -7.173,7.395 l 0,16.898 c 0,4.664 2.64,7.393 7.173,7.393 C -2.685,7.393 0,4.664 0,0"
             inkscape:connector-curvature="0"
             id="path84" class="text"
              /></g><g
           transform="translate(136.9082,69.8594)"
           id="g86"><path
             d="m 0,0 0,-16.018 c 0,-2.289 1.012,-3.519 2.86,-3.519 1.848,0 2.861,1.23 2.861,3.519 L 5.721,0 C 5.721,2.289 4.708,3.521 2.86,3.521 1.012,3.521 0,2.289 0,0 m 10.385,0.045 0,-16.107 c 0,-4.84 -2.86,-7.79 -7.525,-7.79 -4.664,0 -7.525,2.95 -7.525,7.79 l 0,16.107 c 0,4.84 2.861,7.789 7.525,7.789 4.665,0 7.525,-2.949 7.525,-7.789"
             inkscape:connector-curvature="0"
             id="path88" class="text"
              /></g><g
           transform="translate(163.6519,50.8496)"
           id="g90"><path
             d="m 0,0 0,-4.4 -12.454,0 0,30.804 4.665,0 L -7.789,0 0,0 z"
             inkscape:connector-curvature="0"
             id="path92" class="text"
              /></g><g
           transform="translate(179.188,50.8496)"
           id="g94"><path
             d="m 0,0 0,-4.4 -12.454,0 0,30.804 4.665,0 L -7.789,0 0,0 z"
             inkscape:connector-curvature="0"
             id="path96" class="text"
              /></g><g
           transform="translate(186.9351,72.9414)"
           id="g98"><path
             d="m 0,0 0,-8.715 6.821,0 0,-4.312 -6.821,0 0,-9.153 8.449,0 0,-4.312 -13.114,0 0,30.804 13.114,0 L 8.449,0 0,0 z"
             inkscape:connector-curvature="0"
             id="path100" class="text"
              /></g><g
           transform="translate(213.2173,70.3008)"
           id="g102"><path
             d="m 0,0 0,-2.113 -4.488,-0.219 0,1.848 c 0,2.464 -0.925,3.564 -2.729,3.564 -1.804,0 -2.728,-1.1 -2.728,-3.125 l 0,-16.81 c 0,-2.024 0.88,-3.124 2.684,-3.124 1.804,0 2.685,1.1 2.685,3.565 l 0,5.279 -2.641,0 0,4.313 7.217,0 0,-10.076 c 0,-4.666 -2.685,-7.395 -7.349,-7.395 -4.621,0 -7.261,2.729 -7.261,7.395 l 0,16.898 c 0,4.664 2.64,7.393 7.261,7.393 C -2.685,7.393 0,4.664 0,0"
             inkscape:connector-curvature="0"
             id="path104" class="text"
              /></g><g
           transform="translate(221.6675,72.9414)"
           id="g106"><path
             d="m 0,0 0,-8.715 6.821,0 0,-4.312 -6.821,0 0,-9.153 8.449,0 0,-4.312 -13.113,0 0,30.804 13.113,0 L 8.449,0 0,0 z"
             inkscape:connector-curvature="0"
             id="path108" class="text"
              /></g><g
           transform="translate(128.9282,31.3008)"
           id="g110"><path
             d="m 0,0 0,-2.773 -4.489,-0.219 0,2.508 c 0,2.464 -0.924,3.564 -2.64,3.564 -1.716,0 -2.641,-1.1 -2.641,-3.125 l 0,-16.81 c 0,-2.024 0.925,-3.124 2.641,-3.124 1.716,0 2.64,1.1 2.64,3.565 l 0,3.432 4.489,-0.221 0,-3.695 c 0,-4.666 -2.685,-7.395 -7.261,-7.395 -4.533,0 -7.173,2.729 -7.173,7.395 l 0,16.898 c 0,4.664 2.64,7.393 7.173,7.393 C -2.685,7.393 0,4.664 0,0"
             inkscape:connector-curvature="0"
             id="path112" class="text"
              /></g><g
           transform="translate(136.9082,30.8594)"
           id="g114"><path
             d="m 0,0 0,-16.018 c 0,-2.289 1.012,-3.519 2.86,-3.519 1.848,0 2.861,1.23 2.861,3.519 L 5.721,0 C 5.721,2.289 4.708,3.521 2.86,3.521 1.012,3.521 0,2.289 0,0 m 10.385,0.045 0,-16.107 c 0,-4.84 -2.86,-7.79 -7.525,-7.79 -4.664,0 -7.525,2.95 -7.525,7.79 l 0,16.107 c 0,4.84 2.861,7.789 7.525,7.789 4.665,0 7.525,-2.949 7.525,-7.789"
             inkscape:connector-curvature="0"
             id="path116" class="text"
              /></g><g
           transform="translate(161.8037,7.4492)"
           id="g118"><path
             d="m 0,0 -6.117,20.418 -0.088,0 0,-20.418 -4.4,0 0,30.805 5.192,0 5.501,-18.352 0.088,0 0,18.352 4.401,0 L 4.577,0 0,0 z"
             inkscape:connector-curvature="0"
             id="path120" class="text"
              /></g><g
           transform="translate(183.7778,31.6523)"
           id="g122"><path
             d="m 0,0 0,-0.881 -4.489,-0.439 0,0.968 c 0,2.112 -0.792,3.081 -2.42,3.081 -1.364,0 -2.333,-0.749 -2.333,-2.508 l 0,-0.66 c 0,-1.717 0.881,-3.125 3.917,-5.899 4.137,-3.828 5.545,-6.336 5.545,-9.9 l 0,-1.496 c 0,-4.534 -2.861,-6.911 -7.129,-6.911 -4.313,0 -7.217,2.51 -7.217,7.041 l 0,2.026 4.488,0.439 0,-2.111 c 0,-2.068 0.969,-3.08 2.641,-3.08 1.408,0 2.552,0.748 2.552,2.947 l 0,0.969 c 0,1.935 -0.88,3.344 -3.916,6.117 -4.137,3.828 -5.545,6.336 -5.545,9.682 l 0,0.748 c 0,4.531 2.64,6.908 6.953,6.908 C -2.641,7.041 0,4.533 0,0"
             inkscape:connector-curvature="0"
             id="path124" class="text"
              /></g><g
           transform="translate(191.5156,30.8594)"
           id="g126"><path
             d="m 0,0 0,-16.018 c 0,-2.289 1.012,-3.519 2.86,-3.519 1.848,0 2.861,1.23 2.861,3.519 L 5.721,0 C 5.721,2.289 4.708,3.521 2.86,3.521 1.012,3.521 0,2.289 0,0 m 10.385,0.045 0,-16.107 c 0,-4.84 -2.86,-7.79 -7.525,-7.79 -4.664,0 -7.525,2.95 -7.525,7.79 l 0,16.107 c 0,4.84 2.861,7.789 7.525,7.789 4.665,0 7.525,-2.949 7.525,-7.789"
             inkscape:connector-curvature="0"
             id="path128" class="text"
              /></g><g
           transform="translate(210.2642,24.7871)"
           id="g130"><path
             d="m 0,0 1.892,0 c 2.244,0 3.256,1.187 3.256,3.785 l 0,1.584 c 0,2.596 -1.012,3.785 -3.256,3.785 L 0,9.154 0,0 z m 2.156,-4.312 -2.156,0 0,-13.026 -4.665,0 0,30.805 6.732,0 c 5.018,0 7.746,-2.729 7.746,-7.789 l 0,-2.201 c 0,-3.256 -1.144,-5.545 -3.3,-6.778 l 4.268,-14.037 -4.928,0 -3.697,13.026 z"
             inkscape:connector-curvature="0"
             id="path132" class="text"
              /></g><g
           transform="translate(232.3032,33.8535)"
           id="g134"><path
             d="m 0,0 0,-26.404 -4.664,0 0,26.404 -4.973,0 0,4.4 14.61,0 0,-4.4 L 0,0 z"
             inkscape:connector-curvature="0"
             id="path136" class="text"
              /></g><path
           d="m 240.336,38.254 4.664,0 0,-30.805 -4.664,0 0,30.805 z"
           inkscape:connector-curvature="0"
           id="path138" class="text"
            /><g
           transform="translate(263.4556,14.3574)"
           id="g140"><path
             d="m 0,0 c 0,-4.84 -2.772,-7.35 -7.262,-7.35 -4.4,0 -7.173,2.51 -7.173,7.35 l 0,23.896 4.49,0 0,-23.763 c 0,-2.244 1.011,-3.08 2.639,-3.08 1.629,0 2.641,0.836 2.641,3.08 l 0,23.763 4.665,0 L 0,0 z"
             inkscape:connector-curvature="0"
             id="path142" class="text"
              /></g><g
           transform="translate(282.6089,7.4492)"
           id="g144"><path
             d="m 0,0 0,21.387 -0.088,0 -3.873,-16.987 -2.772,0 -3.872,16.987 -0.088,0 0,-21.387 -4.401,0 0,30.805 6.116,0 3.653,-16.547 0.089,0 3.608,16.547 6.293,0 L 4.665,0 0,0 z"
             inkscape:connector-curvature="0"
             id="path146" class="text"
              /></g><g
           transform="translate(64.5098,105.418)"
           id="g148" class="logo-paper" fill="#ffffff"><path
             d="m 0,0 c -2.271,-9.02 -2.152,-14.589 1.738,-23.282 l 1.902,5.579 4.918,-2.36 c -3.124,5.58 -5,10.777 -4.156,18.34 2.614,1.035 4.379,3.977 3.43,7.038 L 0,0 z M 7.424,17.221 C 7.76,16.014 8.002,14.741 8.123,13.444 8.217,12.337 8.191,11.215 8.14,10.071 8.108,8.796 7.96,7.133 7.208,6.648 L 0.459,2.299 C -0.407,1.704 -1.439,1.91 -2.817,2.522 c 0.714,1.95 1.224,4.198 1.183,5.01 -0.236,4.715 -2.027,8.644 -5.645,11.618 -2.527,2.097 -4.603,3.18 -7.742,3.982 -0.014,0.776 0.105,2.423 0.524,2.717 2.614,1.796 2.813,1.865 5.427,3.661 1.111,0.206 2.381,0.154 3.706,-0.118 1.289,-0.274 2.416,-0.67 3.416,-1.124 2.417,-1.098 4.734,-2.766 6.333,-4.766 l 0.079,-0.101 0.078,-0.1 0.078,-0.102 C 4.645,23.166 4.67,23.132 4.695,23.098 L 4.7,23.092 4.705,23.085 4.709,23.08 l 0.003,-0.006 0.001,0 0.004,-0.007 0.004,-0.005 0.005,-0.007 0.004,-0.006 0.004,-0.006 0,0 0.005,-0.006 0.005,-0.005 0.004,-0.007 0.004,-0.006 0.005,-0.006 0.004,-0.006 0.004,-0.006 0.005,-0.006 0.004,-0.006 0.004,-0.006 0.004,-0.006 0.005,-0.007 0.005,-0.006 0.004,-0.006 0,0 0.004,-0.005 0.005,-0.007 0.005,-0.007 0.004,-0.006 0.004,-0.006 0.004,-0.006 0.004,-0.006 0.005,-0.006 0,-10e-4 0.004,-0.006 0.005,-0.006 0.004,-0.006 0.004,-0.006 0,0 0.005,-0.006 0.008,-0.013 0.005,-0.006 0.005,-0.005 0.004,-0.007 0.004,-0.007 0.004,-0.006 0.004,-0.006 0.005,-0.006 0,-10e-4 L 4.896,22.815 4.9,22.809 4.905,22.803 4.909,22.796 4.913,22.79 4.917,22.783 4.922,22.777 4.927,22.771 4.931,22.765 4.935,22.759 4.939,22.752 4.944,22.746 4.948,22.739 4.952,22.733 4.957,22.727 4.961,22.721 4.966,22.714 4.97,22.708 4.974,22.701 C 5.532,21.874 6.002,21.008 6.396,20.106 6.785,19.207 7.138,18.238 7.424,17.221 M 9.196,0.807 c 3.451,-5.376 8.166,-8.406 13.213,-10.885 l -5.388,-0.849 1.602,-5.673 c -5.534,3.364 -10.326,7.11 -13.341,13.696 1.796,0.622 3.325,1.895 3.914,3.711"
             inkscape:connector-curvature="0"
             id="ribbon" class="logo-paper" fill="#ffffff"
             /></g><g
           transform="translate(40.2979,102.2358)"
           id="g152" fill="#ffffff"><path
             d="M 0,0 C -1.912,-1 -3.362,-1.799 -5.186,-3.31 -5.33,-3.429 -5.487,-3.519 -5.651,-3.579 -6.56,-4.61 -7.718,-5.208 -9.013,-5.283 l -0.062,-0.002 c -0.092,-0.005 -0.156,-0.008 -0.178,-0.008 -0.047,0 -0.095,0.002 -0.141,0.007 -1.622,0.046 -3.136,1.022 -4.232,2.5 l -0.003,-0.003 c -1.033,1.395 -1.72,3.282 -1.746,5.225 -0.008,0.614 0.362,1.147 0.895,1.374 l 7.028,3.5 c -0.44,1.269 -1.048,2.483 -1.811,3.472 -1.06,1.375 -2.421,2.293 -4.021,2.201 -0.156,-0.008 -0.314,-0.025 -0.474,-0.053 -1.793,-0.587 -3.048,-2.062 -3.805,-4.032 -0.926,-2.408 -1.128,-5.518 -0.689,-8.724 l 0.009,-0.059 0.01,-0.068 c 0.451,-3.103 2.12,-6.311 4.419,-8.643 2.193,-2.224 4.934,-3.618 7.656,-3.261 l 0.05,0.008 0.04,0.005 c 0.353,0.052 0.698,0.159 1.027,0.317 0.311,0.148 0.612,0.338 0.903,0.567 l 0.015,0.014 0.737,0.685 c 0.945,1.023 1.745,2.468 2.334,4.168 C -0.417,-4.268 -0.043,-2.175 0,0 m -7.603,-1.296 c 0.033,0.057 0.069,0.114 0.109,0.168 0.557,0.91 0.89,2.225 0.878,3.85 -0.001,0.169 -0.008,0.368 -0.021,0.596 -0.02,0.341 -0.055,0.695 -0.106,1.057 l -5.605,-2.79 c 0.162,-0.977 0.558,-1.894 1.092,-2.614 l -0.003,-0.003 0.003,-0.004 c 0.566,-0.764 1.255,-1.272 1.911,-1.307 l 0.088,0.003 0.067,-0.001 0.008,0 c 0.589,0.033 1.141,0.405 1.579,1.045 M 19.053,16.246 C 13.554,13.267 7.73,10.63 1.533,8.435 2.1,6.942 2.485,5.396 2.71,3.847 3.156,0.774 2.972,-2.334 2.307,-5.092 c 1.865,1.649 3.678,3.207 5.499,4.716 3.819,3.165 7.247,5.819 11.561,8.882 0.206,0.146 0.412,0.291 0.618,0.436 C 19.839,6.891 19.51,5.429 19.352,4.801 19.257,4.739 19.195,4.698 19.178,4.687 15.634,2.173 12.842,-0.024 9.686,-2.64 6.145,-5.576 2.568,-8.756 -1.483,-12.518 c -0.192,-0.195 -0.39,-0.379 -0.591,-0.551 l -0.035,-0.032 c -0.054,-0.05 -0.11,-0.095 -0.169,-0.136 -0.476,-0.382 -0.977,-0.702 -1.501,-0.951 -0.601,-0.287 -1.227,-0.483 -1.872,-0.576 l -0.04,-0.007 -0.088,-0.009 c -3.723,-0.488 -7.33,1.277 -10.128,4.115 -2.726,2.766 -4.708,6.586 -5.247,10.295 l -0.009,0.067 -0.009,0.081 c -0.503,3.672 -0.248,7.291 0.86,10.17 1.084,2.819 2.964,4.948 5.724,5.818 l 0.018,0.005 c 6.866,2.475 13.32,5.125 19.397,8.23 0.109,0.055 0.859,0.453 1.708,0.903 1.468,-0.245 2.582,-0.531 4.034,-1.162 -6.161,-3.488 -12.696,-6.409 -19.646,-9.075 0.8,-0.554 1.516,-1.266 2.147,-2.084 1.489,-1.931 2.491,-4.479 2.955,-6.882 C -3.831,4.95 -3.736,4.204 -3.695,3.487 -3.682,3.26 -3.674,3.01 -3.672,2.739 -3.67,2.358 -3.683,1.987 -3.71,1.628 c 0.85,0.498 1.721,0.952 2.715,1.47 l 0.774,0.404 C -0.482,5.26 -0.979,7 -1.745,8.622 -1.78,8.69 -1.811,8.76 -1.836,8.835 c -0.262,0.77 0.149,1.608 0.92,1.87 6.549,2.223 12.671,4.947 18.431,8.058 0.067,-0.082 0.131,-0.164 0.194,-0.247 0.503,-0.665 0.93,-1.385 1.285,-2.141 l 0.059,-0.129 z m 27.426,19.367 c -0.041,-0.04 -0.084,-0.079 -0.13,-0.115 -4.403,-3.842 -9.03,-7.526 -13.933,-10.962 -0.411,0.888 -0.89,1.743 -1.438,2.555 l -0.016,0.024 c 4.396,3.093 8.574,6.398 12.568,9.84 -0.985,1.472 -2.162,2.682 -3.595,3.539 -1.623,0.97 -3.615,1.514 -6.082,1.506 -3.116,-3.351 -6.346,-6.35 -9.704,-9.064 -0.33,0.17 -0.66,0.331 -0.992,0.481 -0.692,0.315 -1.398,0.585 -2.12,0.812 3.852,3.006 7.536,6.38 11.067,10.227 l 0.002,-0.002 c 0.257,0.281 0.622,0.463 1.032,0.479 3.354,0.129 6.072,-0.574 8.305,-1.909 1.733,-1.037 3.148,-2.437 4.322,-4.111 1.006,0.894 1.998,1.795 2.982,2.706 l 10e-4,-0.003 c 0.11,0.101 0.237,0.188 0.379,0.255 0.737,0.341 1.613,0.02 1.954,-0.717 1.605,-3.457 2.03,-7.782 1.468,-11.507 -0.588,-3.891 -2.281,-7.223 -4.886,-8.49 -4.241,-2.066 -8.618,-4.218 -13.044,-6.64 l -0.064,-0.036 c 0.012,0.777 0,1.552 -0.067,2.329 -0.026,0.312 -0.06,0.624 -0.101,0.937 4.05,2.178 8.076,4.157 11.99,6.063 1.672,0.814 2.811,3.29 3.261,6.271 0.383,2.535 0.243,5.375 -0.501,7.898 -0.877,-0.793 -1.763,-1.583 -2.658,-2.366"
             inkscape:connector-curvature="0"
             id="paper"
              /></g></g></g></g></svg>
